<mxfile host="Electron" modified="2023-10-01T15:29:47.861Z" agent="Mozilla/5.0 (Windows NT 10.0; Win64; x64) AppleWebKit/537.36 (KHTML, like Gecko) draw.io/21.6.5 Chrome/114.0.5735.243 Electron/25.3.1 Safari/537.36" etag="mpgn4_FZbe8blNQ8rG34" version="21.6.5" type="device" pages="2">
  <diagram name="case_001" id="a7vLg_kUJ39A6495xjC_">
    <mxGraphModel dx="1820" dy="830" grid="1" gridSize="10" guides="1" tooltips="1" connect="1" arrows="1" fold="1" page="0" pageScale="1" pageWidth="827" pageHeight="1169" math="0" shadow="0">
      <root>
        <mxCell id="0" />
        <mxCell id="1" parent="0" />
        <mxCell id="hh33NWKQrPBD1uHWVqGa-15" style="edgeStyle=orthogonalEdgeStyle;rounded=0;orthogonalLoop=1;jettySize=auto;html=1;entryX=0;entryY=0.5;entryDx=0;entryDy=0;" parent="1" source="hh33NWKQrPBD1uHWVqGa-12" target="hh33NWKQrPBD1uHWVqGa-13" edge="1">
          <mxGeometry relative="1" as="geometry" />
        </mxCell>
        <mxCell id="hh33NWKQrPBD1uHWVqGa-12" value="&lt;p style=&quot;margin:0px;margin-top:4px;text-align:center;text-decoration:underline;&quot;&gt;&lt;b&gt;Node: n_1&lt;/b&gt;&lt;/p&gt;&lt;hr&gt;&lt;p style=&quot;margin:0px;margin-left:8px;&quot;&gt;item: A&lt;/p&gt;&lt;p style=&quot;margin:0px;margin-left:8px;&quot;&gt;holding cost:&lt;/p&gt;&lt;p style=&quot;margin:0px;margin-left:8px;&quot;&gt;- hc_func_001&lt;br&gt;shortage cost:&lt;/p&gt;&lt;p style=&quot;margin:0px;margin-left:8px;&quot;&gt;- short_func_001&lt;/p&gt;&lt;p style=&quot;margin:0px;margin-left:8px;&quot;&gt;salvage cost:&lt;br&gt;&lt;/p&gt;&lt;p style=&quot;margin:0px;margin-left:8px;&quot;&gt;- sal_func_001&lt;/p&gt;" style="verticalAlign=top;align=left;overflow=fill;fontSize=12;fontFamily=monaco;html=1;whiteSpace=wrap;" parent="1" vertex="1">
          <mxGeometry x="-80" y="160" width="240" height="200" as="geometry" />
        </mxCell>
        <mxCell id="hh33NWKQrPBD1uHWVqGa-13" value="&lt;p style=&quot;margin:0px;margin-top:4px;text-align:center;text-decoration:underline;&quot;&gt;&lt;b&gt;Node: n_2&lt;/b&gt;&lt;/p&gt;&lt;hr&gt;&lt;p style=&quot;margin:0px;margin-left:8px;&quot;&gt;item: A&lt;/p&gt;&lt;p style=&quot;margin:0px;margin-left:8px;&quot;&gt;holding cost:&lt;/p&gt;&lt;p style=&quot;margin:0px;margin-left:8px;&quot;&gt;- hc_func_002&lt;br&gt;shortage cost:&lt;/p&gt;&lt;p style=&quot;margin:0px;margin-left:8px;&quot;&gt;- short_func_002&lt;/p&gt;&lt;p style=&quot;margin:0px;margin-left:8px;&quot;&gt;salvage cost:&lt;br&gt;&lt;/p&gt;&lt;p style=&quot;margin:0px;margin-left:8px;&quot;&gt;- sal_func_002&lt;/p&gt;&lt;p style=&quot;margin:0px;margin-left:8px;&quot;&gt;consumer:&lt;br&gt;&lt;/p&gt;&lt;p style=&quot;margin:0px;margin-left:8px;&quot;&gt;- consumer_func_002&lt;/p&gt;" style="verticalAlign=top;align=left;overflow=fill;fontSize=12;fontFamily=monaco;html=1;whiteSpace=wrap;" parent="1" vertex="1">
          <mxGeometry x="680" y="160" width="240" height="200" as="geometry" />
        </mxCell>
        <mxCell id="hh33NWKQrPBD1uHWVqGa-14" value="&lt;p style=&quot;margin:0px;margin-top:4px;text-align:center;text-decoration:underline;&quot;&gt;&lt;b&gt;Edge: e_1&lt;/b&gt;&lt;/p&gt;&lt;hr&gt;&lt;p style=&quot;margin:0px;margin-left:8px;&quot;&gt;item: A&lt;/p&gt;&lt;p style=&quot;margin:0px;margin-left:8px;&quot;&gt;lsFuncId: ls_func_001&lt;br&gt;&lt;/p&gt;&lt;p style=&quot;margin:0px;margin-left:8px;&quot;&gt;loFuncId: lo_func_001&lt;/p&gt;" style="verticalAlign=top;align=left;overflow=fill;fontSize=12;fontFamily=monaco;html=1;whiteSpace=wrap;fillColor=#fff2cc;strokeColor=#d6b656;" parent="1" vertex="1">
          <mxGeometry x="310" y="210" width="240" height="80" as="geometry" />
        </mxCell>
      </root>
    </mxGraphModel>
  </diagram>
  <diagram name="case_002" id="_DWfDWebdikTu8DafHmy">
    <mxGraphModel dx="1820" dy="830" grid="1" gridSize="10" guides="1" tooltips="1" connect="1" arrows="1" fold="1" page="0" pageScale="1" pageWidth="827" pageHeight="1169" math="0" shadow="0">
      <root>
        <mxCell id="qSmkFl-sS3QxVQhh5-VJ-0" />
        <mxCell id="qSmkFl-sS3QxVQhh5-VJ-1" parent="qSmkFl-sS3QxVQhh5-VJ-0" />
        <mxCell id="qSmkFl-sS3QxVQhh5-VJ-3" value="&lt;p style=&quot;margin:0px;margin-top:4px;text-align:center;text-decoration:underline;&quot;&gt;&lt;b&gt;Node: n_1&lt;/b&gt;&lt;/p&gt;&lt;hr&gt;&lt;p style=&quot;margin:0px;margin-left:8px;&quot;&gt;item: A&lt;/p&gt;&lt;p style=&quot;margin:0px;margin-left:8px;&quot;&gt;- holding cost:&lt;span style=&quot;background-color: initial;&quot;&gt;&amp;nbsp;hc_func_001&lt;/span&gt;&lt;/p&gt;&lt;p style=&quot;margin:0px;margin-left:8px;&quot;&gt;- shortage cost:&lt;span style=&quot;background-color: initial;&quot;&gt;&amp;nbsp;short_func_001&lt;/span&gt;&lt;/p&gt;&lt;p style=&quot;margin:0px;margin-left:8px;&quot;&gt;- salvage cost:&lt;span style=&quot;background-color: initial;&quot;&gt;&amp;nbsp;sal_func_001&lt;/span&gt;&lt;/p&gt;" style="verticalAlign=top;align=left;overflow=fill;fontSize=12;fontFamily=monaco;html=1;whiteSpace=wrap;" vertex="1" parent="qSmkFl-sS3QxVQhh5-VJ-1">
          <mxGeometry x="-80" y="160" width="280" height="200" as="geometry" />
        </mxCell>
        <mxCell id="h6XaJZaGXa5gDdI2SNHp-9" style="edgeStyle=orthogonalEdgeStyle;rounded=0;orthogonalLoop=1;jettySize=auto;html=1;entryX=0.5;entryY=0;entryDx=0;entryDy=0;" edge="1" parent="qSmkFl-sS3QxVQhh5-VJ-1" source="qSmkFl-sS3QxVQhh5-VJ-4" target="h6XaJZaGXa5gDdI2SNHp-7">
          <mxGeometry relative="1" as="geometry" />
        </mxCell>
        <mxCell id="qSmkFl-sS3QxVQhh5-VJ-4" value="&lt;p style=&quot;margin:0px;margin-top:4px;text-align:center;text-decoration:underline;&quot;&gt;&lt;b&gt;Node: n_3&lt;/b&gt;&lt;/p&gt;&lt;hr&gt;&lt;p style=&quot;border-color: var(--border-color); margin: 0px 0px 0px 8px;&quot;&gt;item: A&lt;/p&gt;&lt;p style=&quot;border-color: var(--border-color); margin: 0px 0px 0px 8px;&quot;&gt;- holding cost:&amp;nbsp;hc_func_101&lt;/p&gt;&lt;p style=&quot;border-color: var(--border-color); margin: 0px 0px 0px 8px;&quot;&gt;- shortage cost:&lt;span style=&quot;border-color: var(--border-color); background-color: initial;&quot;&gt;&amp;nbsp;short_func_101&lt;/span&gt;&lt;/p&gt;&lt;p style=&quot;border-color: var(--border-color); margin: 0px 0px 0px 8px;&quot;&gt;- salvage cost:&lt;span style=&quot;border-color: var(--border-color); background-color: initial;&quot;&gt;&amp;nbsp;sal_func_101&lt;/span&gt;&lt;/p&gt;&lt;p style=&quot;border-color: var(--border-color); margin: 0px 0px 0px 8px;&quot;&gt;item: B&lt;/p&gt;&lt;p style=&quot;border-color: var(--border-color); margin: 0px 0px 0px 8px;&quot;&gt;- holding cost:&amp;nbsp;hc_func_102&lt;/p&gt;&lt;p style=&quot;border-color: var(--border-color); margin: 0px 0px 0px 8px;&quot;&gt;- shortage cost:&amp;nbsp;short_func_102&lt;/p&gt;&lt;p style=&quot;border-color: var(--border-color); margin: 0px 0px 0px 8px;&quot;&gt;&lt;span style=&quot;border-color: var(--border-color); background-color: initial;&quot;&gt;&lt;/span&gt;&lt;/p&gt;&lt;p style=&quot;border-color: var(--border-color); margin: 0px 0px 0px 8px;&quot;&gt;- salvage cost:&lt;span style=&quot;border-color: var(--border-color); background-color: initial;&quot;&gt;&amp;nbsp;sal_func_102&lt;/span&gt;&lt;/p&gt;&lt;p style=&quot;margin:0px;margin-left:8px;&quot;&gt;item: C&lt;/p&gt;&lt;p style=&quot;border-color: var(--border-color); margin: 0px 0px 0px 8px;&quot;&gt;- holding cost:&amp;nbsp;hc_func_003&lt;/p&gt;&lt;p style=&quot;border-color: var(--border-color); margin: 0px 0px 0px 8px;&quot;&gt;- shortage cost:&lt;span style=&quot;border-color: var(--border-color); background-color: initial;&quot;&gt;&amp;nbsp;short_func_003&lt;/span&gt;&lt;/p&gt;&lt;p style=&quot;border-color: var(--border-color); margin: 0px 0px 0px 8px;&quot;&gt;- salvage cost:&lt;span style=&quot;border-color: var(--border-color); background-color: initial;&quot;&gt;&amp;nbsp;sal_func_003&lt;/span&gt;&lt;/p&gt;&lt;p style=&quot;margin:0px;margin-left:8px;&quot;&gt;manufacture:&lt;br&gt;&lt;/p&gt;&lt;p style=&quot;margin:0px;margin-left:8px;&quot;&gt;- C&lt;/p&gt;&lt;p style=&quot;margin:0px;margin-left:8px;&quot;&gt;&amp;nbsp; - 1*A + 2*B&lt;/p&gt;&lt;p style=&quot;margin:0px;margin-left:8px;&quot;&gt;&amp;nbsp; -&amp;nbsp;process_time: 2.1&lt;/p&gt;" style="verticalAlign=top;align=left;overflow=fill;fontSize=12;fontFamily=monaco;html=1;whiteSpace=wrap;" vertex="1" parent="qSmkFl-sS3QxVQhh5-VJ-1">
          <mxGeometry x="640" y="240" width="280" height="280" as="geometry" />
        </mxCell>
        <mxCell id="qSmkFl-sS3QxVQhh5-VJ-5" value="&lt;p style=&quot;margin:0px;margin-top:4px;text-align:center;text-decoration:underline;&quot;&gt;&lt;b&gt;Edge: e_1&lt;/b&gt;&lt;/p&gt;&lt;hr&gt;&lt;p style=&quot;margin:0px;margin-left:8px;&quot;&gt;item: A&lt;/p&gt;&lt;p style=&quot;margin:0px;margin-left:8px;&quot;&gt;lsFuncId: ls_func_001&lt;br&gt;&lt;/p&gt;&lt;p style=&quot;margin:0px;margin-left:8px;&quot;&gt;loFuncId: lo_func_001&lt;/p&gt;" style="verticalAlign=top;align=left;overflow=fill;fontSize=12;fontFamily=monaco;html=1;whiteSpace=wrap;fillColor=#fff2cc;strokeColor=#d6b656;" vertex="1" parent="qSmkFl-sS3QxVQhh5-VJ-1">
          <mxGeometry x="280" y="160" width="240" height="80" as="geometry" />
        </mxCell>
        <mxCell id="h6XaJZaGXa5gDdI2SNHp-0" value="&lt;p style=&quot;margin:0px;margin-top:4px;text-align:center;text-decoration:underline;&quot;&gt;&lt;b&gt;Node: n_2&lt;/b&gt;&lt;/p&gt;&lt;hr&gt;&lt;p style=&quot;border-color: var(--border-color); margin: 0px 0px 0px 8px;&quot;&gt;item: B&lt;/p&gt;&lt;p style=&quot;border-color: var(--border-color); margin: 0px 0px 0px 8px;&quot;&gt;- holding cost:&amp;nbsp;hc_func_002&lt;/p&gt;&lt;p style=&quot;border-color: var(--border-color); margin: 0px 0px 0px 8px;&quot;&gt;- shortage cost:&lt;span style=&quot;border-color: var(--border-color); background-color: initial;&quot;&gt;&amp;nbsp;short_func_002&lt;/span&gt;&lt;/p&gt;&lt;p style=&quot;border-color: var(--border-color); margin: 0px 0px 0px 8px;&quot;&gt;- salvage cost:&lt;span style=&quot;border-color: var(--border-color); background-color: initial;&quot;&gt;&amp;nbsp;sal_func_002&lt;/span&gt;&lt;/p&gt;" style="verticalAlign=top;align=left;overflow=fill;fontSize=12;fontFamily=monaco;html=1;whiteSpace=wrap;" vertex="1" parent="qSmkFl-sS3QxVQhh5-VJ-1">
          <mxGeometry x="-80" y="400" width="280" height="200" as="geometry" />
        </mxCell>
        <mxCell id="h6XaJZaGXa5gDdI2SNHp-1" value="&lt;p style=&quot;margin:0px;margin-top:4px;text-align:center;text-decoration:underline;&quot;&gt;&lt;b&gt;Edge: e_2&lt;/b&gt;&lt;/p&gt;&lt;hr&gt;&lt;p style=&quot;margin:0px;margin-left:8px;&quot;&gt;item: B&lt;/p&gt;&lt;p style=&quot;margin:0px;margin-left:8px;&quot;&gt;lsFuncId: ls_func_002&lt;br&gt;&lt;/p&gt;&lt;p style=&quot;margin:0px;margin-left:8px;&quot;&gt;loFuncId: lo_func_002&lt;/p&gt;" style="verticalAlign=top;align=left;overflow=fill;fontSize=12;fontFamily=monaco;html=1;whiteSpace=wrap;fillColor=#fff2cc;strokeColor=#d6b656;" vertex="1" parent="qSmkFl-sS3QxVQhh5-VJ-1">
          <mxGeometry x="280" y="520" width="240" height="80" as="geometry" />
        </mxCell>
        <mxCell id="h6XaJZaGXa5gDdI2SNHp-5" value="" style="edgeStyle=elbowEdgeStyle;elbow=horizontal;endArrow=classic;html=1;curved=0;rounded=0;endSize=8;startSize=8;exitX=1;exitY=0.5;exitDx=0;exitDy=0;entryX=0;entryY=0.25;entryDx=0;entryDy=0;" edge="1" parent="qSmkFl-sS3QxVQhh5-VJ-1" source="qSmkFl-sS3QxVQhh5-VJ-3" target="qSmkFl-sS3QxVQhh5-VJ-4">
          <mxGeometry width="50" height="50" relative="1" as="geometry">
            <mxPoint x="300" y="400" as="sourcePoint" />
            <mxPoint x="350" y="350" as="targetPoint" />
          </mxGeometry>
        </mxCell>
        <mxCell id="h6XaJZaGXa5gDdI2SNHp-6" value="" style="edgeStyle=elbowEdgeStyle;elbow=horizontal;endArrow=classic;html=1;curved=0;rounded=0;endSize=8;startSize=8;exitX=1;exitY=0.5;exitDx=0;exitDy=0;entryX=0;entryY=0.75;entryDx=0;entryDy=0;" edge="1" parent="qSmkFl-sS3QxVQhh5-VJ-1" source="h6XaJZaGXa5gDdI2SNHp-0" target="qSmkFl-sS3QxVQhh5-VJ-4">
          <mxGeometry width="50" height="50" relative="1" as="geometry">
            <mxPoint x="360" y="450" as="sourcePoint" />
            <mxPoint x="410" y="400" as="targetPoint" />
          </mxGeometry>
        </mxCell>
        <mxCell id="h6XaJZaGXa5gDdI2SNHp-7" value="&lt;p style=&quot;margin:0px;margin-top:4px;text-align:center;text-decoration:underline;&quot;&gt;&lt;b&gt;Node: n_4&lt;/b&gt;&lt;/p&gt;&lt;hr&gt;&lt;p style=&quot;border-color: var(--border-color); margin: 0px 0px 0px 8px;&quot;&gt;item: C&lt;/p&gt;&lt;p style=&quot;border-color: var(--border-color); margin: 0px 0px 0px 8px;&quot;&gt;- holding cost:&amp;nbsp;hc_func_004&lt;/p&gt;&lt;p style=&quot;border-color: var(--border-color); margin: 0px 0px 0px 8px;&quot;&gt;- shortage cost:&amp;nbsp;short_func_004&lt;/p&gt;&lt;p style=&quot;border-color: var(--border-color); margin: 0px 0px 0px 8px;&quot;&gt;- salvage cost:&lt;span style=&quot;border-color: var(--border-color); background-color: initial;&quot;&gt;&amp;nbsp;sal_func_004&lt;/span&gt;&lt;/p&gt;&lt;p style=&quot;margin:0px;margin-left:8px;&quot;&gt;- consumer:&amp;nbsp;&lt;span style=&quot;background-color: initial;&quot;&gt;consumer_func_004&lt;/span&gt;&lt;/p&gt;" style="verticalAlign=top;align=left;overflow=fill;fontSize=12;fontFamily=monaco;html=1;whiteSpace=wrap;" vertex="1" parent="qSmkFl-sS3QxVQhh5-VJ-1">
          <mxGeometry x="640" y="680" width="280" height="240" as="geometry" />
        </mxCell>
        <mxCell id="MsH4ceOe-03Ls03IIxx2-0" value="&lt;p style=&quot;margin:0px;margin-top:4px;text-align:center;text-decoration:underline;&quot;&gt;&lt;b&gt;Edge: e_3&lt;/b&gt;&lt;/p&gt;&lt;hr&gt;&lt;p style=&quot;margin:0px;margin-left:8px;&quot;&gt;item: C&lt;/p&gt;&lt;p style=&quot;margin:0px;margin-left:8px;&quot;&gt;lsFuncId: ls_func_003&lt;br&gt;&lt;/p&gt;&lt;p style=&quot;margin:0px;margin-left:8px;&quot;&gt;loFuncId: lo_func_003&lt;/p&gt;" style="verticalAlign=top;align=left;overflow=fill;fontSize=12;fontFamily=monaco;html=1;whiteSpace=wrap;fillColor=#fff2cc;strokeColor=#d6b656;" vertex="1" parent="qSmkFl-sS3QxVQhh5-VJ-1">
          <mxGeometry x="800" y="560" width="240" height="80" as="geometry" />
        </mxCell>
      </root>
    </mxGraphModel>
  </diagram>
</mxfile>
